<?xml version="1.0" encoding="utf-8"?>
<!-- Generator: Adobe Illustrator 23.0.1, SVG Export Plug-In . SVG Version: 6.00 Build 0)  -->
<svg version="1.1" id="Layer_1" xmlns="http://www.w3.org/2000/svg" xmlns:xlink="http://www.w3.org/1999/xlink" x="0px" y="0px"
	 viewBox="0 0 55.71 55.71" style="enable-background:new 0 0 55.71 55.71;" xml:space="preserve">
<style type="text/css">
	.st0{fill:#E792FC;}
	.st1{fill:#58595B;}
	.st2{fill:#FED02F;}
	.st3{fill:#FFFFFF;}
</style>
<g>
	<path class="st0" d="M52.35,14.59c0.04,0.24,0.05,0.45,0.03,0.62c-0.24,2.28-0.71,3.65-1.01,4.17c-0.29,0.52-1.09,2.29-2.47,2.44
		c-2.03,0.21-7.49-4.15-7.42-7.09c-1.62,0.55-4.29-0.73-4.44-2.4c-3.13-0.18-6.45,0.6-8.97-2.47c-1.1-1.35,2.06-4.73,2.86-5.6
		c0.57-0.62,3.13-2.72,3.96-2.82c0.45-0.06,1.07-0.12,1.73-0.01C33.88,0.5,30.93,0,27.85,0C12.47,0,0,12.47,0,27.85
		c0,15.38,12.47,27.85,27.85,27.85c15.38,0,27.85-12.47,27.85-27.85C55.71,23.05,54.49,18.54,52.35,14.59z"/>
	<path class="st0" d="M40.41,9.63c1.06-0.17,2.19,0.48,2.56,1.49c0.7-0.43,1.41-0.86,2.11-1.28c0.88-0.53,1.88-1.33,2.85-1.01
		c0.14,0.05,0.27,0.11,0.41,0.17c-2.87-3.12-6.44-5.57-10.47-7.12c0.31,0.17,0.61,0.39,0.89,0.7C40.45,4.35,40.32,6.33,40.41,9.63z"
		/>
	<path class="st1" d="M41.49,14.73c-1.62,0.55-4.29-0.73-4.44-2.4c-3.13-0.18-6.45,0.6-8.97-2.47c-0.32-0.39-0.27-0.97-0.03-1.59
		c-0.07,0-0.13-0.01-0.2-0.01c-12.8,0-23.18,10.78-23.18,23.58v10.04h12.01c-2.06-3.55-3.49-7.91-3.49-12.64
		c0-2.14,0.21-4.2,0.58-6.15h28.13c0.39,1.95,0.6,4.01,0.6,6.15c0,4.73-1.29,9.09-3.25,12.64h11.77V31.84
		c0-3.56-0.8-6.96-2.24-10.02C46.69,21.88,41.42,17.62,41.49,14.73z"/>
	<path class="st2" d="M41.91,23.09H13.78c-0.37,1.95-0.58,4.01-0.58,6.15c0,4.73,1.43,9.09,3.49,12.64
		c3.12,5.37,7.69,8.88,11.06,8.88c4.04,0,8.56-3.51,11.52-8.88c1.96-3.55,3.25-7.91,3.25-12.64C42.51,27.1,42.3,25.04,41.91,23.09z"
		/>
	<path class="st2" d="M52.35,14.59c-1.1-2.03-2.46-3.91-4.01-5.6c-0.13-0.06-0.27-0.12-0.41-0.17c-0.97-0.33-1.98,0.47-2.85,1.01
		c-0.7,0.43-1.41,0.86-2.11,1.28c-0.37-1-1.51-1.66-2.56-1.49c-0.09-3.3,0.04-5.28-1.64-7.06c-0.29-0.3-0.59-0.52-0.89-0.7
		c-0.41-0.16-0.82-0.3-1.23-0.44c-0.67-0.11-1.29-0.05-1.73,0.01c-0.84,0.11-3.39,2.2-3.96,2.82c-0.57,0.62-2.31,2.49-2.89,4.01
		c-0.24,0.63-0.29,1.2,0.03,1.59c2.52,3.08,5.84,2.29,8.97,2.47c0.15,1.67,2.82,2.95,4.44,2.4c-0.07,2.9,5.2,7.15,7.31,7.09
		c0.04,0,0.08,0.01,0.11,0c1.38-0.15,2.18-1.91,2.47-2.44c0.29-0.52,0.76-1.89,1.01-4.17C52.41,15.04,52.39,14.83,52.35,14.59z"/>
	<g>
		<path class="st3" d="M20.4,27.66c0,2.81,3.28,5.09,7.33,5.09c4.05,0,7.33-2.28,7.33-5.09c0-2.01-1.68-3.74-4.11-4.57h-6.44
			C22.08,23.92,20.4,25.65,20.4,27.66z M27.73,25.04c1.45,0,2.62,1.17,2.62,2.62s-1.17,2.62-2.62,2.62s-2.62-1.17-2.62-2.62
			S26.29,25.04,27.73,25.04z"/>
		<path d="M27.73,30.28c1.45,0,2.62-1.17,2.62-2.62s-1.17-2.62-2.62-2.62s-2.62,1.17-2.62,2.62S26.29,30.28,27.73,30.28z"/>
	</g>
</g>
</svg>
