<svg xmlns="http://www.w3.org/2000/svg">
    <symbol id="mindera-avatar" viewbox="0 0 55.71 55.71">
        <path class="st0" d="M52.35,14.59c0.04,0.24,0.05,0.45,0.03,0.62c-0.24,2.28-0.71,3.65-1.01,4.17c-0.29,0.52-1.09,2.29-2.47,2.44
        c-2.03,0.21-7.49-4.15-7.42-7.09c-1.62,0.55-4.29-0.73-4.44-2.4c-3.13-0.18-6.45,0.6-8.97-2.47c-1.1-1.35,2.06-4.73,2.86-5.6
        c0.57-0.62,3.13-2.72,3.96-2.82c0.45-0.06,1.07-0.12,1.73-0.01C33.88,0.5,30.93,0,27.85,0C12.47,0,0,12.47,0,27.85
        c0,15.38,12.47,27.85,27.85,27.85c15.38,0,27.85-12.47,27.85-27.85C55.71,23.05,54.49,18.54,52.35,14.59z"/>
        <path class="st0" d="M40.41,9.63c1.06-0.17,2.19,0.48,2.56,1.49c0.7-0.43,1.41-0.86,2.11-1.28c0.88-0.53,1.88-1.33,2.85-1.01
        c0.14,0.05,0.27,0.11,0.41,0.17c-2.87-3.12-6.44-5.57-10.47-7.12c0.31,0.17,0.61,0.39,0.89,0.7C40.45,4.35,40.32,6.33,40.41,9.63z"
        />
        <path class="st1" d="M41.49,14.73c-1.62,0.55-4.29-0.73-4.44-2.4c-3.13-0.18-6.45,0.6-8.97-2.47c-0.32-0.39-0.27-0.97-0.03-1.59
        c-0.07,0-0.13-0.01-0.2-0.01c-12.8,0-23.18,10.78-23.18,23.58v10.04h12.01c-2.06-3.55-3.49-7.91-3.49-12.64
        c0-2.14,0.21-4.2,0.58-6.15h28.13c0.39,1.95,0.6,4.01,0.6,6.15c0,4.73-1.29,9.09-3.25,12.64h11.77V31.84
        c0-3.56-0.8-6.96-2.24-10.02C46.69,21.88,41.42,17.62,41.49,14.73z"/>
        <path class="st2" d="M41.91,23.09H13.78c-0.37,1.95-0.58,4.01-0.58,6.15c0,4.73,1.43,9.09,3.49,12.64
        c3.12,5.37,7.69,8.88,11.06,8.88c4.04,0,8.56-3.51,11.52-8.88c1.96-3.55,3.25-7.91,3.25-12.64C42.51,27.1,42.3,25.04,41.91,23.09z"
        />
        <path class="st2" d="M52.35,14.59c-1.1-2.03-2.46-3.91-4.01-5.6c-0.13-0.06-0.27-0.12-0.41-0.17c-0.97-0.33-1.98,0.47-2.85,1.01
        c-0.7,0.43-1.41,0.86-2.11,1.28c-0.37-1-1.51-1.66-2.56-1.49c-0.09-3.3,0.04-5.28-1.64-7.06c-0.29-0.3-0.59-0.52-0.89-0.7
        c-0.41-0.16-0.82-0.3-1.23-0.44c-0.67-0.11-1.29-0.05-1.73,0.01c-0.84,0.11-3.39,2.2-3.96,2.82c-0.57,0.62-2.31,2.49-2.89,4.01
        c-0.24,0.63-0.29,1.2,0.03,1.59c2.52,3.08,5.84,2.29,8.97,2.47c0.15,1.67,2.82,2.95,4.44,2.4c-0.07,2.9,5.2,7.15,7.31,7.09
        c0.04,0,0.08,0.01,0.11,0c1.38-0.15,2.18-1.91,2.47-2.44c0.29-0.52,0.76-1.89,1.01-4.17C52.41,15.04,52.39,14.83,52.35,14.59z"/>
        <path class="st3" d="M20.4,27.66c0,2.81,3.28,5.09,7.33,5.09c4.05,0,7.33-2.28,7.33-5.09c0-2.01-1.68-3.74-4.11-4.57h-6.44
        C22.08,23.92,20.4,25.65,20.4,27.66z M27.73,25.04c1.45,0,2.62,1.17,2.62,2.62s-1.17,2.62-2.62,2.62s-2.62-1.17-2.62-2.62
        S26.29,25.04,27.73,25.04z"/>
        <path d="M27.73,30.28c1.45,0,2.62-1.17,2.62-2.62s-1.17-2.62-2.62-2.62s-2.62,1.17-2.62,2.62S26.29,30.28,27.73,30.28z"/>
    </symbol>

    <symbol id="full-heart" viewbox="0 0 22.12 22.11">
        <path class="st4" d="M22.05,4.73c-0.27-1.96-1.22-3.46-2.68-4.22C18.7,0.17,17.98,0,17.21,0c-0.91,0-1.88,0.25-2.84,0.74
        c-1.25,0.64-2.39,1.66-3.31,2.92C10.15,2.4,9.01,1.38,7.76,0.74C6.8,0.25,5.84,0,4.92,0C4.16,0,3.43,0.17,2.77,0.52
        C1.31,1.28,0.36,2.77,0.09,4.73c-0.26,1.89,0.02,4.08,1.17,5.95c3.8,6.21,9.46,11.42,9.8,11.42c0,0,0.01,0,0.01,0c0,0,0,0,0.01,0
        c0.32,0,8.8-9.49,9.81-11.42C21.89,8.74,22.31,6.63,22.05,4.73z"/>
    </symbol>

    <symbol id="outline-heart" viewbox="0 0 22.12 22.11">
        <path class="st4" d="M17.21,1c0.61,0,1.18,0.14,1.69,0.4c1.16,0.61,1.93,1.84,2.15,3.46c0.23,1.69-0.15,3.59-1.06,5.36
        c-0.81,1.57-7.1,8.67-8.99,10.6c-1.48-1.3-5.77-5.56-8.9-10.66c-1.25-2.04-1.18-4.19-1.03-5.3C1.3,3.24,2.07,2.01,3.23,1.4
        C3.75,1.14,4.32,1,4.92,1C5.69,1,6.49,1.21,7.3,1.63C8.4,2.2,9.43,3.1,10.26,4.25l0.81,1.11l0.81-1.11
        c0.83-1.15,1.86-2.05,2.96-2.62C15.65,1.21,16.45,1,17.21,1 M17.21,0c-0.91,0-1.88,0.25-2.84,0.74c-1.25,0.64-2.39,1.66-3.31,2.92
        C10.15,2.4,9.01,1.38,7.76,0.74C6.8,0.25,5.84,0,4.92,0C4.16,0,3.43,0.17,2.77,0.52C1.31,1.28,0.36,2.77,0.09,4.73
        c-0.26,1.89,0.02,4.08,1.17,5.95c3.8,6.21,9.46,11.42,9.8,11.42c0,0,0.01,0,0.01,0c0,0,0,0,0.01,0c0.32,0,8.8-9.49,9.81-11.42
        c1.01-1.94,1.43-4.06,1.17-5.95c-0.27-1.96-1.22-3.46-2.68-4.22C18.7,0.17,17.98,0,17.21,0L17.21,0z"/>
    </symbol>

    <symbol id="control-left" viewport="0 0 12.45 20.57">
        <polygon class="st5" points="12.45,2.16 10.29,0 2.16,8.13 2.16,8.13 0,10.29 0,10.29 0,10.29 2.16,12.45 2.16,12.45 10.29,20.57 
	    12.45,18.41 4.32,10.29 "/>
    </symbol>

    <symbol id="control-right" viewport="0 0 12.45 20.57">
        <polygon class="st5" points="0,2.16 2.16,0 10.29,8.13 10.29,8.13 12.45,10.29 12.45,10.29 12.45,10.29 10.29,12.45 10.29,12.45 
	    2.16,20.57 0,18.41 8.13,10.29 "/>
    </symbol>
</svg>